#!OML:ASF E:\Steps\Project 1\Capture day 1\Session 2\Subject.ASF
:FULLY-SPECIFIED
:DEGREES
78
root 9.51301 16.3234 9.50992 -151.968 -0.956086 178.281
lowerback -29.2145 -1.99771 -6.09017
upperback -2.62182 -1.50178 -0.390378
thorax 12.559 -1.36585 2.23822
lowerneck -1.21784 -0.0744733 -3.72197
upperneck 7.40121 -0.210562 13.4619
head 2.38583 0.473261 4.69665
rclavicle -7.20594e-015 5.1684e-015
rhumerus -39.3116 -27.8541 -70.9607
rradius 21.3973
rwrist 10.0628
rhand -9.11657 -51.8593
rfingers 7.12502
rthumb 16.8342 -441.15
lclavicle -7.20594e-015 5.1684e-015
lhumerus -32.0789 13.7852 77.0632
lradius 14.8296
lwrist -14.8459
lhand -20.0758 -10.6269
lfingers 7.12502
lthumb 6.26666 19.2604
rfemur -24.1682 8.41348 17.1572
rtibia 6.28465
rfoot -19.0956 -5.5131
rtoes -30.7568
lfemur -26.0756 -10.5236 -18.6785
ltibia 7.80233
lfoot -7.76896 3.05564
ltoes -40.6836
79
root 9.51044 16.3246 9.51 -151.986 -0.923621 178.342
lowerback -28.6274 -1.85916 -5.83137
upperback -3.318 -1.48704 -0.596586
thorax 12.2379 -1.35326 2.03045
lowerneck -1.18183 -0.165931 -3.76992
upperneck 7.3959 -0.33101 13.6572
head 2.38863 0.423135 4.76284
rclavicle -7.95139e-016 9.93923e-015
rhumerus -39.9832 -27.937 -70.6847
rradius 21.3748
rwrist 10.1687
rhand -9.25895 -51.9061
rfingers 7.12502
rthumb 16.6972 -441.208
lclavicle -7.95139e-016 9.93923e-015
lhumerus -32.7249 13.5213 76.7377
lradius 14.8716
lwrist -14.8693
lhand -20.373 -10.5371
lfingers 7.12502
lthumb 5.97971 19.3585
rfemur -24.2118 8.43313 17.2214
rtibia 6.40621
rfoot -19.1235 -5.5899
rtoes -30.6973
lfemur -26.0394 -10.4938 -18.6308
ltibia 7.78756
lfoot -7.8507 3.05439
ltoes -40.7801
80
root 9.50735 16.325 9.51106 -151.994 -0.86726 178.389
lowerback -28.4636 -1.75641 -5.70823
upperback -3.40232 -1.4087 -0.666734
thorax 12.0435 -1.30916 1.91427
lowerneck -1.20604 -0.217411 -3.75012
upperneck 7.36935 -0.396095 13.8056
head 2.39073 0.401158 4.80415
rclavicle 1.49089e-016 1.82882e-014
rhumerus -40.3186 -28.1012 -70.493
rradius 21.4578
rwrist 10.1596
rhand -9.20832 -51.9216
rfingers 7.12502
rthumb 16.7459 -441.219
lclavicle 1.49089e-016 1.82882e-014
lhumerus -32.9168 13.4314 76.5573
lradius 14.8513
lwrist -14.7599
lhand -20.1937 -10.3487
lfingers 7.12502
lthumb 6.15283 19.5419
rfemur -24.2331 8.32335 17.2906
rtibia 6.45998
rfoot -19.1101 -5.46461
rtoes -30.7512
lfemur -26.0094 -10.44 -18.6194
ltibia 7.76142
lfoot -7.84329 3.05186
ltoes -40.9348
81
root 9.50453 16.3245 9.51282 -151.963 -0.842521 178.432
lowerback -28.4909 -1.72839 -5.64851
upperback -3.39014 -1.3863 -0.670338
thorax 12.0692 -1.29599 1.88353
lowerneck -1.20977 -0.205103 -3.74751
upperneck 7.36037 -0.375909 13.9129
head 2.38676 0.418141 4.83758
rclavicle 7.8023e-015 -1.78906e-014
rhumerus -40.391 -28.143 -70.4299
rradius 21.535
rwrist 10.1631
rhand -8.99478 -52.2416
rfingers 7.12502
rthumb 16.9515 -441.522
lclavicle 7.8023e-015 -1.78906e-014
lhumerus -32.9976 13.5389 76.4333
lradius 14.8443
lwrist -14.7046
lhand -19.9048 -10.2412
lfingers 7.12502
lthumb 6.43172 19.6411
rfemur -24.3064 8.24447 17.335
rtibia 6.5273
rfoot -19.1808 -5.25756
rtoes -30.7306
lfemur -26.0233 -10.4012 -18.5853
ltibia 7.69242
lfoot -7.80046 3.04272
ltoes -40.5699
82
root 9.50237 16.3234 9.51332 -151.931 -0.80741 178.461
lowerback -28.5401 -1.74103 -5.62362
upperback -3.36915 -1.40689 -0.644813
thorax 12.1213 -1.30511 1.88913
lowerneck -1.20932 -0.174558 -3.78978
upperneck 7.35849 -0.332589 14.0193
head 2.38192 0.444293 4.87891
rclavicle -1.1778e-014 -1.15295e-014
rhumerus -40.3843 -28.1223 -70.3997
rradius 21.6068
rwrist 10.175
rhand -8.8631 -52.6908
rfingers 7.12502
rthumb 17.0782 -441.96
lclavicle -1.1778e-014 -1.15295e-014
lhumerus -33.0686 13.5712 76.4272
lradius 14.9009
lwrist -14.4581
lhand -19.7944 -10.1794
lfingers 7.12502
lthumb 6.53834 19.6996
rfemur -24.3501 8.22931 17.3446
rtibia 6.53196
rfoot -19.1953 -5.14362
rtoes -30.6043
lfemur -26.0289 -10.3722 -18.5595
ltibia 7.60751
lfoot -7.7924 3.05107
ltoes -39.9847
83
root 9.50072 16.3215 9.51415 -151.908 -0.766342 178.466
lowerback -28.5374 -1.72034 -5.62475
upperback -3.38788 -1.38363 -0.651461
thorax 12.0959 -1.29525 1.89132
lowerneck -1.20253 -0.178551 -3.78835
upperneck 7.33952 -0.333188 14.1402
head 2.3751 0.451091 4.91617
rclavicle -1.66482e-014 -1.39149e-014
rhumerus -40.4716 -28.1158 -70.3789
rradius 21.7684
rwrist 9.99738
rhand -8.92547 -52.8249
rfingers 7.12502
rthumb 17.0182 -442.099
lclavicle -1.66482e-014 -1.39149e-014
lhumerus -33.1506 13.4052 76.4614
lradius 15.0128
lwrist -14.0797
lhand -19.5463 -10.1576
lfingers 7.12502
lthumb 6.7778 19.7139
rfemur -24.3927 8.13538 17.3584
rtibia 6.5552
rfoot -19.1629 -5.0461
rtoes -30.5093
lfemur -26.0561 -10.406 -18.5478
ltibia 7.61504
lfoot -7.79127 3.10868
ltoes -39.7178
84
root 9.5003 16.3207 9.51631 -151.88 -0.758804 178.466
lowerback -28.4997 -1.71278 -5.62678
upperback -3.41877 -1.38099 -0.657707
thorax 12.0396 -1.29444 1.88758
lowerneck -1.21903 -0.18662 -3.77114
upperneck 7.31816 -0.339408 14.2632
head 2.37209 0.456496 4.9514
rclavicle -1.04362e-015 -4.37326e-015
rhumerus -40.5437 -28.085 -70.381
rradius 21.9071
rwrist 9.81306
rhand -9.05933 -52.6906
rfingers 7.12502
rthumb 16.8893 -441.976
lclavicle -1.04362e-015 -4.37326e-015
lhumerus -33.2902 13.2012 76.4796
lradius 15.1945
lwrist -13.7713
lhand -19.4673 -9.91698
lfingers 7.12502
lthumb 6.85402 19.9521
rfemur -24.4624 8.13102 17.3518
rtibia 6.60439
rfoot -19.1662 -5.12614
rtoes -30.7475
lfemur -26.1157 -10.4346 -18.5267
ltibia 7.68297
lfoot -7.83792 3.139
ltoes -39.7406
85
root 9.50084 16.3202 9.51918 -151.832 -0.729693 178.453
lowerback -28.5232 -1.73363 -5.64948
upperback -3.40978 -1.40027 -0.643745
thorax 12.0646 -1.30507 1.90855
lowerneck -1.25396 -0.17186 -3.8135
upperneck 7.30686 -0.317191 14.3897
head 2.37238 0.474008 4.99867
rclavicle 2.73329e-015 2.50469e-014
rhumerus -40.4896 -27.9438 -70.4633
rradius 22.03
rwrist 9.63886
rhand -9.21953 -52.1185
rfingers 7.12502
rthumb 16.7351 -441.417
lclavicle 2.73329e-015 2.50469e-014
lhumerus -33.4191 13.2291 76.4702
lradius 15.3704
lwrist -13.7627
lhand -19.8124 -9.65162
lfingers 7.12502
lthumb 6.52093 20.228
rfemur -24.5475 8.24646 17.2814
rtibia 6.61597
rfoot -19.1555 -5.26664
rtoes -30.7752
lfemur -26.2047 -10.4242 -18.523
ltibia 7.75388
lfoot -7.90038 3.12739
ltoes -39.9861
86
root 9.50099 16.3197 9.52181 -151.794 -0.707215 178.427
lowerback -28.683 -1.75167 -5.74107
upperback -3.31684 -1.37143 -0.619342
thorax 12.2565 -1.29719 1.9955
lowerneck -1.2415 -0.143104 -3.82357
upperneck 7.28845 -0.272737 14.4925
head 2.36045 0.501346 5.03327
rclavicle 1.68967e-015 -5.56597e-015
rhumerus -40.3473 -27.6898 -70.6736
rradius 22.2956
rwrist 9.22549
rhand -9.35204 -51.8094
rfingers 7.12502
rthumb 16.6075 -441.119
lclavicle 1.68967e-015 -5.56597e-015
lhumerus -33.3041 13.4014 76.5086
lradius 15.4138
lwrist -13.8903
lhand -20.1608 -9.83547
lfingers 7.12502
lthumb 6.18458 20.0542
rfemur -24.5999 8.32184 17.2005
rtibia 6.60085
rfoot -19.1646 -5.19538
rtoes -29.866
lfemur -26.2785 -10.426 -18.5398
ltibia 7.80214
lfoot -7.89038 3.12054
ltoes -40.2538
87
root 9.50141 16.3193 9.52505 -151.721 -0.705056 178.428
lowerback -29.1138 -1.80184 -5.90777
upperback -3.08178 -1.32504 -0.526869
thorax 12.7594 -1.28853 2.20407
lowerneck -1.20705 -0.0668098 -3.76209
upperneck 7.25858 -0.160568 14.547
head 2.33513 0.561516 5.04165
rclavicle -5.06901e-015 7.95139e-016
rhumerus -39.9825 -27.7056 -70.7787
rradius 22.4971
rwrist 8.95822
rhand -9.33676 -51.9601
rfingers 7.12502
rthumb 16.6222 -441.268
lclavicle -5.06901e-015 7.95139e-016
lhumerus -32.872 13.6077 76.7194
lradius 15.4294
lwrist -13.8996
lhand -20.3818 -10.1576
lfingers 7.12502
lthumb 5.97121 19.7383
rfemur -24.6878 8.46635 17.1348
rtibia 6.57774
rfoot -19.1638 -5.19039
rtoes -29.1957
lfemur -26.4047 -10.4078 -18.5205
ltibia 7.89402
lfoot -7.9544 3.12567
ltoes -40.3141
88
root 9.50049 16.3187 9.52678 -151.663 -0.682517 178.432
lowerback -28.7472 -1.72119 -5.74331
upperback -3.35212 -1.33508 -0.646323
thorax 12.2445 -1.28359 1.97844
lowerneck -1.22673 -0.144993 -3.81668
upperneck 7.25595 -0.263584 14.746
head 2.34713 0.521796 5.1113
rclavicle 1.31198e-014 1.15295e-014
rhumerus -40.4284 -27.6368 -70.7733
rradius 22.6359
rwrist 8.85709
rhand -9.23294 -51.9265
rfingers 7.12502
rthumb 16.7222 -441.226
lclavicle 1.31198e-014 1.15295e-014
lhumerus -33.3974 13.1037 76.6073
lradius 15.7494
lwrist -13.4442
lhand -20.5074 -10.5336
lfingers 7.12502
lthumb 5.84997 19.3657
rfemur -24.8243 8.45247 17.1259
rtibia 6.69292
rfoot -19.2153 -5.18373
rtoes -29.5438
lfemur -26.4935 -10.3783 -18.5183
ltibia 7.92467
lfoot -8.02524 3.11316
ltoes -40.1751
